<svg width="29" height="29" viewBox="0 0 29 29" fill="none" xmlns="http://www.w3.org/2000/svg">
<path fill-rule="evenodd" clip-rule="evenodd" d="M19.8389 7.81794H20.0864C23.3392 7.81794 25.9792 10.5367 25.9792 13.8717V20.5417C25.9792 23.8767 23.3392 26.5834 20.0864 26.5834H8.91367C5.66085 26.5834 3.02087 23.8767 3.02087 20.5417V13.8717C3.02087 10.5367 5.66085 7.81794 8.91367 7.81794H9.16117C9.18474 6.36794 9.73866 5.0146 10.7404 3.9996C11.754 2.97252 13.0504 2.45294 14.5118 2.41669C17.4347 2.41669 19.8036 4.83335 19.8389 7.81794ZM11.9779 5.29252C11.3179 5.96919 10.9526 6.86335 10.929 7.81794H18.0711C18.0357 5.83627 16.4564 4.22919 14.5118 4.22919C13.6043 4.22919 12.6615 4.60377 11.9779 5.29252ZM18.9786 12.47C19.4736 12.47 19.8625 12.0592 19.8625 11.5638V10.1621C19.8625 9.66669 19.4736 9.25585 18.9786 9.25585C18.4954 9.25585 18.0946 9.66669 18.0946 10.1621V11.5638C18.0946 12.0592 18.4954 12.47 18.9786 12.47ZM10.7994 11.5638C10.7994 12.0592 10.4104 12.47 9.91545 12.47C9.43224 12.47 9.03153 12.0592 9.03153 11.5638V10.1621C9.03153 9.66669 9.43224 9.25585 9.91545 9.25585C10.4104 9.25585 10.7994 9.66669 10.7994 10.1621V11.5638Z" fill="#3B4B7C"/>
</svg>
