<svg width="36" height="34" viewBox="0 0 36 34" fill="none" xmlns="http://www.w3.org/2000/svg">
<path fill-rule="evenodd" clip-rule="evenodd" d="M24.737 0.376225C25.8413 0.376225 26.9438 0.531975 27.992 0.883725C34.4513 2.98373 36.7788 10.0712 34.8345 16.2662C33.732 19.432 31.9295 22.3212 29.5688 24.682C26.1895 27.9545 22.4813 30.8595 18.4895 33.362L18.052 33.6262L17.597 33.3445C13.5913 30.8595 9.86204 27.9545 6.45129 24.6645C4.10629 22.3037 2.30204 19.432 1.18204 16.2662C-0.795459 10.0712 1.53204 2.98373 8.06129 0.846975C8.56879 0.671975 9.09204 0.549475 9.61704 0.481225H9.82704C10.3188 0.409475 10.807 0.376225 11.297 0.376225H11.4895C12.592 0.409475 13.6595 0.601975 14.6938 0.953725H14.797C14.867 0.986975 14.9195 1.02373 14.9545 1.05698C15.3413 1.18123 15.707 1.32123 16.057 1.51373L16.722 1.81123C16.8827 1.89693 17.0631 2.02788 17.219 2.14105C17.3177 2.21275 17.4067 2.27732 17.4745 2.31873C17.5031 2.33557 17.5321 2.35251 17.5614 2.36959C17.7114 2.45719 17.8677 2.54843 17.9995 2.64948C19.9438 1.16373 22.3045 0.358725 24.737 0.376225ZM29.392 12.9762C30.1095 12.957 30.722 12.3812 30.7745 11.6445V11.4362C30.827 8.98448 29.3413 6.76373 27.082 5.90623C26.3645 5.65948 25.577 6.04623 25.3145 6.78123C25.0695 7.51623 25.4545 8.32123 26.1895 8.58197C27.3113 9.00198 28.062 10.1062 28.062 11.3295V11.3837C28.0288 11.7845 28.1495 12.1712 28.3945 12.4687C28.6395 12.7662 29.007 12.9395 29.392 12.9762Z" fill="#65EF23"/>
</svg>
