<svg width="29" height="29" viewBox="0 0 29 29" fill="none" xmlns="http://www.w3.org/2000/svg">
<path d="M11.0379 25.1011V21.4064C11.0379 20.4632 11.8081 19.6986 12.7581 19.6986H16.2311C16.6874 19.6986 17.1249 19.8786 17.4475 20.1988C17.7701 20.5191 17.9514 20.9535 17.9514 21.4064V25.1011C17.9485 25.4933 18.1034 25.8703 18.3817 26.1486C18.6599 26.4268 19.0386 26.5834 19.4336 26.5833H21.803C22.9096 26.5862 23.9719 26.1518 24.7554 25.376C25.5389 24.6002 25.9792 23.5468 25.9792 22.4482V11.9225C25.9792 11.0351 25.583 10.1933 24.8973 9.624L16.837 3.23336C15.4349 2.11287 13.426 2.14904 12.0657 3.31929L4.18935 9.624C3.47127 10.1765 3.04208 11.0208 3.02087 11.9225V22.4375C3.02087 24.7272 4.89063 26.5833 7.19708 26.5833H9.51239C10.3328 26.5834 10.9995 25.9263 11.0054 25.1119L11.0379 25.1011Z" fill="#65EF23"/>
</svg>
