<svg width="29" height="29" viewBox="0 0 29 29" fill="none" xmlns="http://www.w3.org/2000/svg">
<path fill-rule="evenodd" clip-rule="evenodd" d="M22.6043 10.6289C22.6043 12.1465 23.0054 13.041 23.8881 14.0718C24.557 14.8312 24.7708 15.806 24.7708 16.8635C24.7708 17.9199 24.4237 18.9227 23.7284 19.7369C22.8181 20.7129 21.5343 21.336 20.2241 21.4443C18.3255 21.6061 16.4256 21.7425 14.5006 21.7425C12.5743 21.7425 10.6756 21.6609 8.77699 21.4443C7.46559 21.336 6.18182 20.7129 5.27272 19.7369C4.57739 18.9227 4.22913 17.9199 4.22913 16.8635C4.22913 15.806 4.44409 14.8312 5.1118 14.0718C6.02209 13.041 6.39678 12.1465 6.39678 10.6289V10.1141C6.39678 8.08176 6.90357 6.75281 7.94716 5.45185C9.49875 3.55457 11.9858 2.41669 14.4465 2.41669H14.5546C17.0681 2.41669 19.6357 3.60933 21.1608 5.58816C22.1504 6.86234 22.6043 8.13531 22.6043 10.1141V10.6289ZM10.964 24.2402C10.964 23.6317 11.5224 23.353 12.0388 23.2337C12.6429 23.106 16.3237 23.106 16.9277 23.2337C17.4441 23.353 18.0025 23.6317 18.0025 24.2402C17.9725 24.8195 17.6327 25.3331 17.1631 25.6592C16.5542 26.1338 15.8397 26.4344 15.0927 26.5427C14.6796 26.5963 14.2737 26.5975 13.875 26.5427C13.1268 26.4344 12.4123 26.1338 11.8046 25.658C11.3339 25.3331 10.994 24.8195 10.964 24.2402Z" fill="#3B4B7C"/>
</svg>
