<svg width="116" height="116" viewBox="0 0 116 116" fill="none" xmlns="http://www.w3.org/2000/svg">
<path d="M66.7907 85.3801C63.9926 88.484 59.1668 88.7332 56.0629 85.9465L30.7672 63.177C27.6633 60.3789 27.4141 55.5531 30.2008 52.4492C32.9989 49.3453 37.8247 49.0961 40.9286 51.8828L60.5715 69.566L98.6227 27.3121C96.7196 24.8086 94.5672 22.441 92.143 20.2547C71.3333 1.51797 39.252 3.19453 20.504 24.0156C1.75591 44.8367 3.4438 76.918 24.2649 95.666C45.086 114.414 77.1672 112.738 95.9153 91.9164C108.659 77.7676 111.956 58.4305 106.224 41.5969L66.7907 85.3801Z" fill="#60CF2C"/>
</svg>
